<?xml version="1.0" encoding="UTF-8" standalone="no"?>
<svg
	xmlns:dc="http://purl.org/dc/elements/1.1/"
	xmlns:cc="http://creativecommons.org/ns#"
	xmlns:rdf="http://www.w3.org/1999/02/22-rdf-syntax-ns#"
	xmlns:svg="http://www.w3.org/2000/svg"
	xmlns="http://www.w3.org/2000/svg"
   viewBox="0 0 597.9093 137.88"
   height="137.88"
   width="597.9093"
   xml:space="preserve"
   id="svg2"
   version="1.1">
	<metadata
     id="metadata8">
		<rdf:RDF>
			<cc:Work
         rdf:about="">
				<dc:format>image/svg+xml</dc:format>
				<dc:type
           rdf:resource="http://purl.org/dc/dcmitype/StillImage" />
			</cc:Work>
		</rdf:RDF>
	</metadata>
	<defs
     id="defs6">
		<clipPath
       id="clipPath30"
       clipPathUnits="userSpaceOnUse">
			<path
         id="path28"
         d="M 0,0 H 448.431 V 103.41 H 0 Z" />
		</clipPath>
	</defs>
	<g
     transform="matrix(1.3333333,0,0,-1.3333333,0,137.88)"
     id="g10">
		<path
       id="path12"
       style="fill:#000000;fill-opacity:1;fill-rule:nonzero;stroke:none"
       d="M 0,0 H 241.456 V 103.41 H 0 Z" />
		<g
       transform="translate(17.4321,79.1001)"
       id="g14">
			<path
         id="path16"
         style="fill:#ffffff;fill-opacity:1;fill-rule:nonzero;stroke:none"
         d="M 0,0 H 7.51 L 22.603,-35.421 37.407,0 h 7.537 v -54.343 h -7.97 v 33.891 h -0.18 L 25.777,-46.551 H 19.131 L 8.114,-20.452 H 7.969 V -54.343 H 0 Z" />
		</g>
		<g
       transform="translate(17.4321,79.1001)"
       id="g18">
			<path
         id="path20"
         style="fill:none;stroke:#ffffff;stroke-width:3;stroke-linecap:butt;stroke-linejoin:miter;stroke-miterlimit:10;stroke-dasharray:none;stroke-opacity:1"
         d="M 0,0 H 7.51 L 22.603,-35.421 37.407,0 h 7.537 v -54.343 h -7.97 v 33.891 h -0.18 L 25.777,-46.551 H 19.131 L 8.114,-20.452 H 7.969 V -54.343 H 0 Z" />
		</g>
		<path
       id="path22"
       style="fill:#ffffff;fill-opacity:1;fill-rule:nonzero;stroke:#ffffff;stroke-width:3;stroke-linecap:butt;stroke-linejoin:miter;stroke-miterlimit:10;stroke-dasharray:none;stroke-opacity:1"
       d="m 74.832,63.446 h 7.522 V 24.757 h -7.522 z m 0,15.654 h 7.522 v -7.749 h -7.522 z" />
		<g
       id="g24">
			<g
         clip-path="url(#clipPath30)"
         id="g26">
				<g
           transform="translate(92.9092,63.4458)"
           id="g32">
					<path
             id="path34"
             style="fill:#ffffff;fill-opacity:1;fill-rule:nonzero;stroke:none"
             d="m 0,0 h 7.522 v -4.1 h 0.144 c 2.477,3.056 5.724,4.585 9.74,4.585 3.101,0 5.94,-1.132 8.513,-3.392 2.548,-2.287 3.883,-5.641 4.004,-10.064 v -25.718 h -7.522 v 23.064 c 0,2.712 -0.698,4.777 -2.095,6.196 -1.372,1.443 -3.142,2.164 -5.308,2.164 -2.167,0 -3.949,-0.721 -5.345,-2.164 -1.421,-1.419 -2.131,-3.484 -2.131,-6.196 V -38.689 H 0 Z" />
				</g>
				<g
           transform="translate(92.9092,63.4458)"
           id="g36">
					<path
             id="path38"
             style="fill:none;stroke:#ffffff;stroke-width:3;stroke-linecap:butt;stroke-linejoin:miter;stroke-miterlimit:10;stroke-dasharray:none;stroke-opacity:1"
             d="m 0,0 h 7.522 v -4.1 h 0.144 c 2.477,3.056 5.724,4.585 9.74,4.585 3.101,0 5.94,-1.132 8.513,-3.392 2.548,-2.287 3.883,-5.641 4.004,-10.064 v -25.718 h -7.522 v 23.064 c 0,2.712 -0.698,4.777 -2.095,6.196 -1.372,1.443 -3.142,2.164 -5.308,2.164 -2.167,0 -3.949,-0.721 -5.345,-2.164 -1.421,-1.419 -2.131,-3.484 -2.131,-6.196 V -38.689 H 0 Z" />
				</g>
				<g
           transform="translate(133.9087,63.4458)"
           id="g40">
					<path
             id="path42"
             style="fill:#ffffff;fill-opacity:1;fill-rule:nonzero;stroke:none"
             d="m 0,0 h 7.522 v -23.064 c 0,-2.613 0.71,-4.653 2.131,-6.121 1.396,-1.468 3.178,-2.202 5.345,-2.202 2.166,0 3.936,0.734 5.308,2.202 1.396,1.468 2.095,3.508 2.095,6.121 V 0 h 7.522 V -38.689 H 22.4 v 4.137 h -0.144 c -2.477,-3.056 -5.711,-4.584 -9.703,-4.584 -3.102,0.05 -5.904,1.215 -8.405,3.497 -2.717,2.231 -4.1,5.53 -4.148,9.895 z" />
				</g>
				<g
           transform="translate(133.9087,63.4458)"
           id="g44">
					<path
             id="path46"
             style="fill:none;stroke:#ffffff;stroke-width:3;stroke-linecap:butt;stroke-linejoin:miter;stroke-miterlimit:10;stroke-dasharray:none;stroke-opacity:1"
             d="m 0,0 h 7.522 v -23.064 c 0,-2.613 0.71,-4.653 2.131,-6.121 1.396,-1.468 3.178,-2.202 5.345,-2.202 2.166,0 3.936,0.734 5.308,2.202 1.396,1.468 2.095,3.508 2.095,6.121 V 0 h 7.522 V -38.689 H 22.4 v 4.137 h -0.144 c -2.477,-3.056 -5.711,-4.584 -9.703,-4.584 -3.102,0.05 -5.904,1.215 -8.405,3.497 -2.717,2.231 -4.1,5.53 -4.148,9.895 z" />
				</g>
				<g
           transform="translate(175.356,75.2241)"
           id="g48">
					<path
             id="path50"
             style="fill:#ffffff;fill-opacity:1;fill-rule:nonzero;stroke:none"
             d="m 0,0 h 7.522 v -11.778 h 5.488 v -5.96 H 7.522 v -22.557 c -0.05,-1.963 0.841,-2.921 2.672,-2.871 h 2.816 v -7.301 H 9.082 c -2.643,0 -4.805,0.843 -6.487,2.532 -1.73,1.613 -2.595,3.946 -2.595,7 v 23.197 h -3.777 v 5.96 H 0 Z" />
				</g>
				<g
           transform="translate(175.356,75.2241)"
           id="g52">
					<path
             id="path54"
             style="fill:none;stroke:#ffffff;stroke-width:3;stroke-linecap:butt;stroke-linejoin:miter;stroke-miterlimit:10;stroke-dasharray:none;stroke-opacity:1"
             d="m 0,0 h 7.522 v -11.778 h 5.488 v -5.96 H 7.522 v -22.557 c -0.05,-1.963 0.841,-2.921 2.672,-2.871 h 2.816 v -7.301 H 9.082 c -2.643,0 -4.805,0.843 -6.487,2.532 -1.73,1.613 -2.595,3.946 -2.595,7 v 23.197 h -3.777 v 5.96 H 0 Z" />
				</g>
				<g
           transform="translate(217.623,44.0645)"
           id="g56">
					<path
             id="path58"
             style="fill:#ffffff;fill-opacity:1;fill-rule:nonzero;stroke:none"
             d="m 0,0 c 0,2.767 -0.121,4.785 -0.362,6.058 -0.242,1.222 -0.736,2.295 -1.484,3.216 -0.554,0.872 -1.374,1.559 -2.46,2.058 -1.037,0.522 -2.244,0.785 -3.618,0.785 -1.279,0 -2.461,-0.263 -3.546,-0.786 -1.038,-0.498 -1.881,-1.185 -2.533,-2.057 -0.651,-0.922 -1.122,-1.994 -1.411,-3.216 -0.29,-1.273 -0.434,-3.266 -0.434,-5.984 0,-2.692 0.144,-4.663 0.434,-5.908 0.289,-1.272 0.76,-2.395 1.411,-3.367 0.652,-0.747 1.495,-1.408 2.533,-1.982 1.085,-0.548 2.267,-0.823 3.546,-0.823 1.374,0 2.581,0.275 3.618,0.823 1.086,0.574 1.906,1.235 2.46,1.982 0.748,0.972 1.242,2.095 1.484,3.367 C -0.121,-4.589 0,-2.644 0,0 m -23.37,0.074 c 0,4.082 0.325,7.218 0.975,9.409 0.674,2.141 1.709,3.946 3.104,5.414 1.035,1.286 2.479,2.436 4.333,3.449 1.829,0.964 4.176,1.47 7.04,1.52 2.961,-0.051 5.355,-0.559 7.185,-1.529 1.805,-1.019 3.201,-2.174 4.188,-3.465 1.488,-1.467 2.543,-3.268 3.167,-5.406 0.6,-2.186 0.9,-5.318 0.9,-9.392 0,-4.075 -0.301,-7.181 -0.902,-9.318 -0.626,-2.138 -1.684,-3.988 -3.176,-5.554 -0.481,-0.571 -1.071,-1.131 -1.769,-1.678 -0.625,-0.621 -1.431,-1.155 -2.418,-1.601 -1.828,-1.069 -4.222,-1.627 -7.181,-1.679 -2.863,0.052 -5.209,0.61 -7.037,1.679 -1.853,0.969 -3.297,2.061 -4.331,3.279 -1.396,1.566 -2.431,3.416 -3.104,5.554 -0.65,2.137 -0.974,5.243 -0.974,9.318" />
				</g>
				<g
           transform="translate(217.623,44.0645)"
           id="g60">
					<path
             id="path62"
             style="fill:none;stroke:#ffffff;stroke-width:3;stroke-linecap:butt;stroke-linejoin:miter;stroke-miterlimit:10;stroke-dasharray:none;stroke-opacity:1"
             d="m 0,0 c 0,2.767 -0.121,4.785 -0.362,6.058 -0.242,1.222 -0.736,2.295 -1.484,3.216 -0.554,0.872 -1.374,1.559 -2.46,2.058 -1.037,0.522 -2.244,0.785 -3.618,0.785 -1.279,0 -2.461,-0.263 -3.546,-0.786 -1.038,-0.498 -1.881,-1.185 -2.533,-2.057 -0.651,-0.922 -1.122,-1.994 -1.411,-3.216 -0.29,-1.273 -0.434,-3.266 -0.434,-5.984 0,-2.692 0.144,-4.663 0.434,-5.908 0.289,-1.272 0.76,-2.395 1.411,-3.367 0.652,-0.747 1.495,-1.408 2.533,-1.982 1.085,-0.548 2.267,-0.823 3.546,-0.823 1.374,0 2.581,0.275 3.618,0.823 1.086,0.574 1.906,1.235 2.46,1.982 0.748,0.972 1.242,2.095 1.484,3.367 C -0.121,-4.589 0,-2.644 0,0 Z m -23.37,0.074 c 0,4.082 0.325,7.218 0.975,9.409 0.674,2.141 1.709,3.946 3.104,5.414 1.035,1.286 2.479,2.436 4.333,3.449 1.829,0.964 4.176,1.47 7.04,1.52 2.961,-0.051 5.355,-0.559 7.185,-1.529 1.805,-1.019 3.201,-2.174 4.188,-3.465 1.488,-1.467 2.543,-3.268 3.167,-5.406 0.6,-2.186 0.9,-5.318 0.9,-9.392 0,-4.075 -0.301,-7.181 -0.902,-9.318 -0.626,-2.138 -1.684,-3.988 -3.176,-5.554 -0.481,-0.571 -1.071,-1.131 -1.769,-1.678 -0.625,-0.621 -1.431,-1.155 -2.418,-1.601 -1.828,-1.069 -4.222,-1.627 -7.181,-1.679 -2.863,0.052 -5.209,0.61 -7.037,1.679 -1.853,0.969 -3.297,2.061 -4.331,3.279 -1.396,1.566 -2.431,3.416 -3.104,5.554 -0.65,2.137 -0.974,5.243 -0.974,9.318 z" />
				</g>
				<g
           transform="translate(258.2861,79.1011)"
           id="g64">
					<path
             id="path66"
             style="fill:#000000;fill-opacity:1;fill-rule:nonzero;stroke:none"
             d="m 0,0 h 7.513 l 23.838,-38.633 h 0.144 V 0 h 7.969 V -54.343 H 31.916 L 8.113,-15.711 H 7.969 V -54.343 H 0 Z" />
				</g>
				<g
           transform="translate(258.2861,79.1011)"
           id="g68">
					<path
             id="path70"
             style="fill:none;stroke:#1e120d;stroke-width:3;stroke-linecap:butt;stroke-linejoin:miter;stroke-miterlimit:10;stroke-dasharray:none;stroke-opacity:1"
             d="m 0,0 h 7.513 l 23.838,-38.633 h 0.144 V 0 h 7.969 V -54.343 H 31.916 L 8.113,-15.711 H 7.969 V -54.343 H 0 Z" />
				</g>
				<g
           transform="translate(331.3398,47.5645)"
           id="g72">
					<path
             id="path74"
             style="fill:#000000;fill-opacity:1;fill-rule:nonzero;stroke:none"
             d="m 0,0 c -0.097,3.022 -0.881,5.307 -2.352,6.854 -1.448,1.474 -3.304,2.21 -5.572,2.21 -2.267,0 -4.125,-0.736 -5.572,-2.21 C -14.92,5.307 -15.704,3.022 -15.848,0 Z m -15.848,-6.403 c 0,-3.11 0.867,-5.472 2.601,-7.087 1.613,-1.642 3.733,-2.462 6.358,-2.462 3.059,0 5.792,1.256 8.201,3.767 l 5.455,-4.81 c -3.827,-4.223 -8.326,-6.309 -13.498,-6.26 -1.974,0 -3.899,0.3 -5.776,0.896 -0.938,0.323 -1.851,0.756 -2.742,1.304 -0.938,0.471 -1.816,1.055 -2.635,1.751 -1.588,1.442 -2.875,3.454 -3.862,6.039 -1.083,2.485 -1.624,5.714 -1.624,9.691 0,3.827 0.47,7.008 1.408,9.541 0.938,2.584 2.141,4.622 3.608,6.114 1.493,1.514 3.164,2.608 5.017,3.279 1.828,0.671 3.632,1.006 5.413,1.006 4.282,-0.05 7.903,-1.504 10.863,-4.362 C 5.946,9.097 7.475,5.095 7.522,0 v -6.403 z" />
				</g>
				<g
           transform="translate(331.3398,47.5645)"
           id="g76">
					<path
             id="path78"
             style="fill:none;stroke:#1e120d;stroke-width:3;stroke-linecap:butt;stroke-linejoin:miter;stroke-miterlimit:10;stroke-dasharray:none;stroke-opacity:1"
             d="m 0,0 c -0.097,3.022 -0.881,5.307 -2.352,6.854 -1.448,1.474 -3.304,2.21 -5.572,2.21 -2.267,0 -4.125,-0.736 -5.572,-2.21 C -14.92,5.307 -15.704,3.022 -15.848,0 Z m -15.848,-6.403 c 0,-3.11 0.867,-5.472 2.601,-7.087 1.613,-1.642 3.733,-2.462 6.358,-2.462 3.059,0 5.792,1.256 8.201,3.767 l 5.455,-4.81 c -3.827,-4.223 -8.326,-6.309 -13.498,-6.26 -1.974,0 -3.899,0.3 -5.776,0.896 -0.938,0.323 -1.851,0.756 -2.742,1.304 -0.938,0.471 -1.816,1.055 -2.635,1.751 -1.588,1.442 -2.875,3.454 -3.862,6.039 -1.083,2.485 -1.624,5.714 -1.624,9.691 0,3.827 0.47,7.008 1.408,9.541 0.938,2.584 2.141,4.622 3.608,6.114 1.493,1.514 3.164,2.608 5.017,3.279 1.828,0.671 3.632,1.006 5.413,1.006 4.282,-0.05 7.903,-1.504 10.863,-4.362 C 5.946,9.097 7.475,5.095 7.522,0 v -6.403 z" />
				</g>
				<g
           transform="translate(369.875,51.8638)"
           id="g80">
					<path
             id="path82"
             style="fill:#000000;fill-opacity:1;fill-rule:nonzero;stroke:none"
             d="m 0,0 h -0.146 l -7.833,-27.106 h -6.643 l -11.985,38.689 h 7.977 l 7.185,-27.138 h 0.144 l 8.521,27.138 h 5.451 l 8.519,-27.138 h 0.145 l 7.148,27.138 h 7.979 L 14.513,-27.106 H 7.834 Z" />
				</g>
				<g
           transform="translate(369.875,51.8638)"
           id="g84">
					<path
             id="path86"
             style="fill:none;stroke:#1e120d;stroke-width:3;stroke-linecap:butt;stroke-linejoin:miter;stroke-miterlimit:10;stroke-dasharray:none;stroke-opacity:1"
             d="m 0,0 h -0.146 l -7.833,-27.106 h -6.643 l -11.985,38.689 h 7.977 l 7.185,-27.138 h 0.144 l 8.521,27.138 h 5.451 l 8.519,-27.138 h 0.145 l 7.148,27.138 h 7.979 L 14.513,-27.106 H 7.834 Z" />
				</g>
				<g
           transform="translate(404.2197,36.5732)"
           id="g88">
					<path
             id="path90"
             style="fill:#000000;fill-opacity:1;fill-rule:nonzero;stroke:none"
             d="m 0,0 c 3.064,-3.308 7.021,-4.961 11.874,-4.961 2.172,0 3.946,0.435 5.321,1.305 1.376,0.869 2.064,2.087 2.064,3.652 0,1.393 -0.41,2.361 -1.23,2.908 -0.845,0.573 -1.967,0.882 -3.364,0.932 L 8.008,4.433 C 4.85,4.731 2.281,5.824 0.304,7.712 c -2.026,1.841 -3.063,4.411 -3.112,7.717 0.049,3.976 1.41,6.958 4.083,8.946 2.602,1.988 5.902,2.983 9.901,2.983 1.734,0 3.287,-0.111 4.66,-0.336 1.373,-0.248 2.662,-0.596 3.866,-1.043 2.312,-0.969 4.384,-2.272 6.215,-3.912 L 21.25,16.443 c -1.448,1.079 -2.98,1.97 -4.595,2.672 -1.593,0.627 -3.426,0.941 -5.5,0.941 -2.364,0 -4.016,-0.436 -4.956,-1.306 -0.99,-0.872 -1.484,-1.991 -1.484,-3.36 -0.05,-0.87 0.324,-1.629 1.121,-2.276 0.723,-0.72 2.002,-1.181 3.835,-1.381 l 6.221,-0.485 c 3.907,-0.299 6.728,-1.518 8.464,-3.656 1.617,-2.091 2.424,-4.74 2.424,-7.949 -0.049,-3.757 -1.528,-6.656 -4.441,-8.697 -2.89,-2.09 -6.586,-3.159 -11.088,-3.209 -6.115,0 -11.616,2.31 -16.504,6.929 z" />
				</g>
				<g
           transform="translate(404.2197,36.5732)"
           id="g92">
					<path
             id="path94"
             style="fill:none;stroke:#1e120d;stroke-width:3;stroke-linecap:butt;stroke-linejoin:miter;stroke-miterlimit:10;stroke-dasharray:none;stroke-opacity:1"
             d="m 0,0 c 3.064,-3.308 7.021,-4.961 11.874,-4.961 2.172,0 3.946,0.435 5.321,1.305 1.376,0.869 2.064,2.087 2.064,3.652 0,1.393 -0.41,2.361 -1.23,2.908 -0.845,0.573 -1.967,0.882 -3.364,0.932 L 8.008,4.433 C 4.85,4.731 2.281,5.824 0.304,7.712 c -2.026,1.841 -3.063,4.411 -3.112,7.717 0.049,3.976 1.41,6.958 4.083,8.946 2.602,1.988 5.902,2.983 9.901,2.983 1.734,0 3.287,-0.111 4.66,-0.336 1.373,-0.248 2.662,-0.596 3.866,-1.043 2.312,-0.969 4.384,-2.272 6.215,-3.912 L 21.25,16.443 c -1.448,1.079 -2.98,1.97 -4.595,2.672 -1.593,0.627 -3.426,0.941 -5.5,0.941 -2.364,0 -4.016,-0.436 -4.956,-1.306 -0.99,-0.872 -1.484,-1.991 -1.484,-3.36 -0.05,-0.87 0.324,-1.629 1.121,-2.276 0.723,-0.72 2.002,-1.181 3.835,-1.381 l 6.221,-0.485 c 3.907,-0.299 6.728,-1.518 8.464,-3.656 1.617,-2.091 2.424,-4.74 2.424,-7.949 -0.049,-3.757 -1.528,-6.656 -4.441,-8.697 -2.89,-2.09 -6.586,-3.159 -11.088,-3.209 -6.115,0 -11.616,2.31 -16.504,6.929 z" />
				</g>
			</g>
		</g>
	</g>
</svg>